<svg width="300" height="400" viewBox="0 0 300 400" fill="none" xmlns="http://www.w3.org/2000/svg">
<rect width="300" height="400" fill="#2E3148"/>
<path d="M0 250 L300 250 L300 400 L0 400 Z" fill="#3A405A"/>
<path d="M75 100 L225 100 L240 200 L60 200 Z" fill="#4E5D78"/>
<path d="M80 90 L220 90 L230 190 L70 190 Z" fill="#5F7297"/>
<rect x="120" y="70" width="60" height="20" fill="#F6C667"/>
<rect x="10" y="250" width="280" height="20" fill="#4E5D78"/>
<rect x="30" y="270" width="240" height="20" fill="#5F7297"/>
<rect x="50" y="290" width="200" height="20" fill="#748DA9"/>
<rect x="70" y="310" width="160" height="20" fill="#89B0AE"/>
<rect x="90" y="330" width="120" height="20" fill="#A3D1B0"/>
<rect x="110" y="350" width="80" height="20" fill="#BCEAD5"/>
<rect x="130" y="370" width="40" height="20" fill="#D6EFD4"/>
<rect x="145" y="390" width="10" height="10" fill="#EAF2E3"/>
<rect x="100" y="110" width="20" height="80" fill="#F6C667"/>
<rect x="180" y="110" width="20" height="80" fill="#F6C667"/>
</svg>